<?xml version="1.0" encoding="iso-8859-1"?>
<!-- Generator: Adobe Illustrator 19.0.0, SVG Export Plug-In . SVG Version: 6.00 Build 0)  -->
<svg xmlns="http://www.w3.org/2000/svg" xmlns:xlink="http://www.w3.org/1999/xlink" version="1.1" id="Layer_1" x="0px" y="0px" viewBox="0 0 512 512" style="enable-background:new 0 0 512 512;" xml:space="preserve" width="512px" height="512px">
<g>
	<g>
		<path d="M392.533,102.4c-30.174,0-56.26,17.536-68.813,42.906L160.043,75.153c1.323-4.924,2.091-10.078,2.091-15.42    C162.133,26.795,135.33,0,102.4,0C69.47,0,42.667,26.795,42.667,59.733s26.803,59.733,59.733,59.733    c21.538,0,40.388-11.494,50.901-28.638l164.608,70.545c-1.374,5.734-2.176,11.682-2.176,17.826    c0,20.318,7.987,38.758,20.915,52.514L199.808,349.005c-16.708-15.309-38.886-24.738-63.275-24.738    c-51.755,0-93.867,42.112-93.867,93.867S84.779,512,136.533,512c51.755,0,93.867-42.112,93.867-93.867    c0-21.231-7.168-40.772-19.098-56.508l138.453-118.682C361.993,251.187,376.713,256,392.533,256c42.351,0,76.8-34.458,76.8-76.8    S434.884,102.4,392.533,102.4z M102.4,51.2c-4.71,0-8.533,3.831-8.533,8.533c0,4.71-3.814,8.533-8.533,8.533    S76.8,64.444,76.8,59.733c0-14.114,11.486-25.6,25.6-25.6c4.719,0,8.533,3.823,8.533,8.533    C110.933,47.377,107.119,51.2,102.4,51.2z M136.533,375.467c-23.526,0-42.667,19.14-42.667,42.667c0,4.71-3.814,8.533-8.533,8.533    s-8.533-3.823-8.533-8.533c0-32.939,26.803-59.733,59.733-59.733c4.719,0,8.533,3.823,8.533,8.533    S141.252,375.467,136.533,375.467z M392.533,153.6c-14.114,0-25.6,11.486-25.6,25.6c0,4.71-3.814,8.533-8.533,8.533    c-4.719,0-8.533-3.823-8.533-8.533c0-23.526,19.14-42.667,42.667-42.667c4.719,0,8.533,3.823,8.533,8.533    C401.067,149.777,397.252,153.6,392.533,153.6z" fill="#FFFFFF"/>
	</g>
</g>
<g>
</g>
<g>
</g>
<g>
</g>
<g>
</g>
<g>
</g>
<g>
</g>
<g>
</g>
<g>
</g>
<g>
</g>
<g>
</g>
<g>
</g>
<g>
</g>
<g>
</g>
<g>
</g>
<g>
</g>
</svg>
