<?xml version="1.0" encoding="iso-8859-1"?>
<!-- Generator: Adobe Illustrator 18.0.0, SVG Export Plug-In . SVG Version: 6.00 Build 0)  -->
<!DOCTYPE svg PUBLIC "-//W3C//DTD SVG 1.1//EN" "http://www.w3.org/Graphics/SVG/1.1/DTD/svg11.dtd">
<svg xmlns="http://www.w3.org/2000/svg" xmlns:xlink="http://www.w3.org/1999/xlink" version="1.1" id="Capa_1" x="0px" y="0px" viewBox="0 0 494.689 494.689" style="enable-background:new 0 0 494.689 494.689;" xml:space="preserve" width="512px" height="512px">
<g>
	<path d="M400.632,206.215l-35.294-52.267c-2.383-3.526-5.626-6.388-9.436-8.301c0,0-79.31-42.956-93.348-45.304   c-17.478-2.924-27.268,3.309-38.299,7.938c-13.279,5.571-53.168,19.347-53.168,19.347l-40.303-34.15   c-10.506-8.892-26.215-7.595-35.1,2.902c-8.883,10.497-7.587,26.206,2.902,35.099l50.97,43.18   c4.572,3.867,10.295,5.901,16.099,5.901c2.627,0,5.269-0.413,7.83-1.264l29.445-9.755l-11.952,88.229   c-0.535,3.943-1.979,15.095,0.859,24.237l28.176,90.349l-22.583,85.89c-4.086,15.515,5.188,31.403,20.703,35.48   c2.48,0.656,4.96,0.964,7.408,0.964c12.889,0,24.658-8.633,28.079-21.675l24.707-93.956c1.394-5.269,1.265-10.83-0.356-16.034   l-14.223-45.609l32.315,14.458l-13.779,67.838c-3.194,15.726,6.954,31.062,22.68,34.256c1.962,0.397,3.907,0.591,5.82,0.591   c13.52,0,25.647-9.5,28.435-23.272l18.417-90.641c2.707-13.326-4.183-26.75-16.601-32.302l-50.622-22.648l12.338-91.073   l24.941,12.576l31.663,46.885c4.814,7.125,12.661,10.967,20.653,10.967c4.799,0,9.646-1.378,13.926-4.264   C405.333,233.087,408.332,217.612,400.632,206.215z" fill="#FFFFFF"/>
	<path d="M296.778,94.986c25.939-5.649,42.361-31.241,36.721-57.155c-5.641-25.923-31.24-42.37-57.164-36.72   c-25.922,5.649-42.344,31.231-36.721,57.155C245.275,84.189,270.856,100.626,296.778,94.986z" fill="#FFFFFF"/>
</g>
<g>
</g>
<g>
</g>
<g>
</g>
<g>
</g>
<g>
</g>
<g>
</g>
<g>
</g>
<g>
</g>
<g>
</g>
<g>
</g>
<g>
</g>
<g>
</g>
<g>
</g>
<g>
</g>
<g>
</g>
</svg>
