<?xml version="1.0" encoding="iso-8859-1"?>
<!-- Generator: Adobe Illustrator 18.1.1, SVG Export Plug-In . SVG Version: 6.00 Build 0)  -->
<svg xmlns="http://www.w3.org/2000/svg" xmlns:xlink="http://www.w3.org/1999/xlink" version="1.1" id="Capa_1" x="0px" y="0px" viewBox="0 0 525.153 525.153" style="enable-background:new 0 0 525.153 525.153;" xml:space="preserve" width="512px" height="512px">
<g>
	<path d="M262.576,525.153c124.308,0,225.072-100.742,225.072-225.072C363.34,300.081,262.576,400.866,262.576,525.153z    M102.536,231.308c0,34.485,28.008,62.515,62.515,62.515c13.216,0,25.229-4.026,35.492-10.963l-0.503,4.726   c0,34.485,28.008,62.515,62.515,62.515s62.515-28.03,62.515-62.515l-0.481-4.726c10,6.936,22.253,10.963,35.492,10.963   c34.507,0,62.515-28.03,62.515-62.515c0-25.032-14.726-46.235-35.732-56.279c21.006-9.978,35.732-31.268,35.732-56.213   c0-34.551-28.03-62.515-62.515-62.515c-13.238,0-25.229,4.026-35.492,10.963l0.481-4.726C325.091,28.03,297.105,0,262.576,0   s-62.515,28.03-62.515,62.515l0.503,4.726c-10.022-6.936-22.275-10.963-35.513-10.963c-34.529,0-62.515,27.964-62.515,62.515   c0,24.967,14.726,46.235,35.732,56.213C117.262,185.073,102.536,206.297,102.536,231.308z M262.576,112.514   c34.529,0,62.515,28.03,62.515,62.515c0,34.551-28.008,62.515-62.515,62.515s-62.515-27.964-62.515-62.515   C200.061,140.544,228.048,112.514,262.576,112.514z M37.505,300.081c0,124.33,100.764,225.072,225.072,225.072   C262.576,400.866,161.813,300.081,37.505,300.081z" fill="#FFFFFF"/>
</g>
<g>
</g>
<g>
</g>
<g>
</g>
<g>
</g>
<g>
</g>
<g>
</g>
<g>
</g>
<g>
</g>
<g>
</g>
<g>
</g>
<g>
</g>
<g>
</g>
<g>
</g>
<g>
</g>
<g>
</g>
</svg>
