<?xml version="1.0" encoding="utf-8"?>
<!-- Generator: Adobe Illustrator 20.0.0, SVG Export Plug-In . SVG Version: 6.00 Build 0)  -->
<svg version="1.1" id="Layer_1" xmlns="http://www.w3.org/2000/svg" xmlns:xlink="http://www.w3.org/1999/xlink" x="0px" y="0px"
	 viewBox="0 0 772 109" style="enable-background:new 0 0 772 109;" xml:space="preserve">
<style type="text/css">
	.st0{fill:#89B940;}
	.st1{fill:none;stroke:#89B940;stroke-width:5;stroke-miterlimit:10;}
</style>
<path class="st0" d="M245.8,106.3c0,0-4.6-12.3-3.8-23c5.3-79.8-56-72.1-56.5-71.2c0,0,5,6.8,6.6,13.7c9.8,43.8,34.8,62.8,34.8,62.8
	s-30.4-22.2-38.5-60.9c-1.8-8.5-5.8-13-16.3-19.9c0,0-10.4-2.2-10.8,0c7.2-0.2,13.6,9.4,16.7,14c-23,39,4.3,67,15.1,73.9
	C218.6,111.9,245.8,106.3,245.8,106.3z"/>
<path class="st1" d="M13,16c64.3-32.5,735,22.5,751-9.1"/>
</svg>
