<?xml version="1.0" encoding="iso-8859-1"?>
<!-- Generator: Adobe Illustrator 16.0.0, SVG Export Plug-In . SVG Version: 6.00 Build 0)  -->
<!DOCTYPE svg PUBLIC "-//W3C//DTD SVG 1.1//EN" "http://www.w3.org/Graphics/SVG/1.1/DTD/svg11.dtd">
<svg xmlns="http://www.w3.org/2000/svg" xmlns:xlink="http://www.w3.org/1999/xlink" version="1.1" id="Capa_1" x="0px" y="0px" width="512px" height="512px" viewBox="0 0 79.536 79.536" style="enable-background:new 0 0 79.536 79.536;" xml:space="preserve">
<g>
	<path d="M19.843,23.084c0,5.033-4.083,9.106-9.095,9.106c-5.041,0-9.114-4.073-9.114-9.106   c0.005-5.02,4.073-9.103,9.114-9.103C15.765,13.981,19.843,18.064,19.843,23.084z M59.693,23.084c0,5.033,4.081,9.106,9.093,9.106   c5.044,0,9.124-4.073,9.124-9.106c0-5.02-4.08-9.103-9.124-9.103C63.774,13.981,59.693,18.064,59.693,23.084z M34.735,54.371   c-0.205-1.937,0.541-3.729,1.804-5.033c-7.705-1.471-10.866-5.23-13.611-8.627c-1.338-1.665-2.609-3.252-4.295-4.37   c-0.055-0.031-0.111-0.031-0.155-0.073c-1.442-1.188-3.265-1.947-5.274-1.947H8.283C3.729,34.321,0,38.039,0,42.595v22.96h21.492   V50.714c3.138,2.745,7.57,5.354,14.385,6.493C35.305,56.379,34.859,55.448,34.735,54.371z M71.262,34.321h-4.935   c-1.999,0-3.832,0.758-5.256,1.947c-0.058,0.042-0.114,0.042-0.155,0.073c-1.688,1.118-2.962,2.695-4.309,4.37   c-3.014,3.729-6.431,7.984-15.99,9.041c-2.164,0.249-3.718,2.195-3.479,4.36c0.218,2.02,1.926,3.51,3.915,3.51   c0.142,0,0.29-0.01,0.445-0.021c8.099-0.9,13.11-3.78,16.56-6.835v14.789h21.479v-22.96C79.536,38.039,75.808,34.321,71.262,34.321   z" fill="#FFFFFF"/>
</g>
<g>
</g>
<g>
</g>
<g>
</g>
<g>
</g>
<g>
</g>
<g>
</g>
<g>
</g>
<g>
</g>
<g>
</g>
<g>
</g>
<g>
</g>
<g>
</g>
<g>
</g>
<g>
</g>
<g>
</g>
</svg>
