<?xml version="1.0" encoding="iso-8859-1"?>
<!-- Generator: Adobe Illustrator 16.0.0, SVG Export Plug-In . SVG Version: 6.00 Build 0)  -->
<!DOCTYPE svg PUBLIC "-//W3C//DTD SVG 1.1//EN" "http://www.w3.org/Graphics/SVG/1.1/DTD/svg11.dtd">
<svg xmlns="http://www.w3.org/2000/svg" xmlns:xlink="http://www.w3.org/1999/xlink" version="1.1" id="Capa_1" x="0px" y="0px" width="512px" height="512px" viewBox="0 0 441.18 441.181" style="enable-background:new 0 0 441.18 441.181;" xml:space="preserve">
<g>
	<g>
		<path d="M190.953,30.583l4.453-3.658c4.354-3.58,9.005-6.881,13.823-9.904C189.333,1.534,164.085,1.896,164.085,1.896    s5.414,9.207,8.332,21.9C178.438,25.7,184.655,27.95,190.953,30.583z" fill="#FFFFFF"/>
		<path d="M214.536,39.402l7.775,4.347c16.17-9.972,33.305-17.289,49.041-22.176c0.897-6.905,3.306-14.022,8.063-21.573    c-18.632,0-54.191,10.395-80.091,31.69C204.399,34.014,209.492,36.582,214.536,39.402z" fill="#FFFFFF"/>
		<path d="M260.813,327.047c-5.543,2.021-10.707,5.191-15.338,8.82c-6.14,4.816-11.361,10.744-15.395,17.404V227.117    c17.701,14.266,64.763,9.882,64.763,9.882c-7.673-7.987-16.272-13.791-24.356-17.999c26.572-12.807,45.104-41.664,45.104-75.216    c0-45.438-31.043-78.191-3.616-121.714c-41.932,0-148.225,39.44-148.225,121.714c0,27.119,12.106,51.17,30.778,66.159    c-3.375,0.842-7.794,2.143-12.787,4.069c-18.637-16.845-30.501-42.074-30.501-70.229c0-47.26,31.052-78.564,58.778-97.1    c-29.565-16.528-61.802-24.635-80.811-24.635c27.427,43.523-3.616,76.278-3.616,121.717c0,33.564,18.55,62.418,45.14,75.217    c-8.094,4.209-16.708,10.02-24.393,18.018c0,0,47.062,4.384,64.763-9.881v140.129c-4.041-6.852-9.349-12.939-15.62-17.859    c-4.582-3.593-9.692-6.729-15.177-8.729c-4.634-1.688-9.538-2.498-14.464-2.476c-11.488,0.054-22.66,4.173-33.087,8.632    c4.795,5.657,9.31,11.569,14.354,17.013c8.38,9.046,18.761,16.157,30.572,19.897c10.788,3.412,22.399,3.876,33.421,1.388v56.066    h18.98v-69.123c11.022,2.415,22.61,1.925,33.385-1.483c11.938-3.781,22.428-10.969,30.898-20.11    c5.098-5.503,9.661-11.478,14.507-17.196c-10.539-4.505-21.83-8.666-33.438-8.721    C270.452,324.521,265.497,325.341,260.813,327.047z M203.203,376.646c-2.878-2.023-5.915-3.823-8.937-5.624    c-3.109-1.849-6.354-3.545-9.627-5.087c-5.445-2.567-11.02-5.043-16.818-6.712c2.528,0.26,5.035,0.733,7.531,1.204    c10.559,1.99,28.176,9.203,35.748,12.426v9.646C208.537,380.454,205.887,378.536,203.203,376.646z M256.43,352.589    c-3.309,1.56-6.587,3.274-9.729,5.146c-3.055,1.819-6.123,3.64-9.032,5.682c-2.576,1.814-5.12,3.659-7.588,5.606v-9.608    c7.854-3.332,25.245-10.413,35.735-12.389c2.521-0.478,5.055-0.955,7.612-1.219C267.567,347.494,261.933,349.998,256.43,352.589z" fill="#FFFFFF"/>
	</g>
</g>
<g>
</g>
<g>
</g>
<g>
</g>
<g>
</g>
<g>
</g>
<g>
</g>
<g>
</g>
<g>
</g>
<g>
</g>
<g>
</g>
<g>
</g>
<g>
</g>
<g>
</g>
<g>
</g>
<g>
</g>
</svg>
